<svg xmlns="http://www.w3.org/2000/svg" xmlns:xlink="http://www.w3.org/1999/xlink" width="1903" height="1903" viewBox="0 0 1903 1903">
  <defs>
    <clipPath id="clip-path">
      <rect id="Retângulo_1" data-name="Retângulo 1" width="1903" height="1903" transform="translate(-0.419 -0.419)"/>
    </clipPath>
  </defs>
  <g id="MiB_-_Classic_Logo" data-name="MiB - Classic Logo" transform="translate(0.419 0.419)" clip-path="url(#clip-path)">
    <path id="Fix" d="M1590.633-35.2l17.655,36.945,60.573,1.63L1684.89-35.2l606.274,625.5-611.49,630.167h-93.189L1196.268,594.737Z" transform="translate(-677.892 259.138)"/>
    <path id="Bottom_Left_Path" data-name="Bottom Left Path" d="M1392.752,285.977,989.108,928.709l797.073,1.883Z" transform="translate(-865.608 550.167)" fill="#1a1a1a"/>
    <path id="Top_Left_Path" data-name="Top Left Path" d="M989.075-39.369l793.617-.3-1.412,1265.342Z" transform="translate(-865.638 255.088)" fill="#333"/>
    <path id="Mid_Path" data-name="Mid Path" d="M1405.284-39.607S1406.9.887,1447.354.887s40.463-40.627,40.463-40.627l-.421,1264.867h-83.778Z" transform="translate(-488.086 255.6)" fill="#1a1a1a"/>
    <path id="Bottom_Right_Path" data-name="Bottom Right Path" d="M1446.211,928.044l611.3-639.462a718.242,718.242,0,0,1,77.935,77.467c65.911,77.007,147.15,208.674,91.757,346.38C2140.228,928.6,1943.078,928.2,1943.078,928.2Z" transform="translate(-451.411 552.526)" fill="#1a1a1a"/>
    <path id="Top_Right_Path" data-name="Top Right Path" d="M1449.627-39.313h486.255s311.156,19.553,311.852,323.7c.181,77.559-33.9,134.037-64.088,177.472-34.213,49.23-162.526,169.509-294.163,305.044-208.243,214.406-442.493,458.411-442.493,458.411Z" transform="translate(-450.131 255.411)" fill="#333"/>
  </g>
</svg>
