<svg xmlns="http://www.w3.org/2000/svg" xmlns:xlink="http://www.w3.org/1999/xlink" width="103" height="103" viewBox="0 0 103 103"><defs><clipPath id="a"><rect width="103" height="103" transform="translate(2027.48 -149.52)"/></clipPath></defs><g transform="translate(-2027.48 149.52)" clip-path="url(#a)"><path d="M1217.676-35.2l.959,2.006,3.289.088.87-2.094,32.913,33.957-33.2,34.211h-5.059L1196.267-1Z" transform="translate(858.597 -102.92)" fill="#a1a1a1"/><path d="M1011.021,285.977,989.108,320.87l43.272.1Z" transform="translate(1044.319 -390.862)" fill="#c2c2c2"/><path d="M989.075-39.654l43.084-.016-.077,68.693Z" transform="translate(1044.349 -98.913)" fill="#e2e2e2"/><path d="M1403.707-39.733a2.256,2.256,0,0,0,2.284,2.2,2.157,2.157,0,0,0,2.2-2.206l-.023,68.667h-4.548Z" transform="translate(672.808 -98.819)" fill="#c2c2c2"/><path d="M1446.21,323.3l33.186-34.715a39,39,0,0,1,4.231,4.205c3.578,4.181,7.989,11.329,4.981,18.8-4.722,11.736-15.425,11.714-15.425,11.714Z" transform="translate(634.518 -393.197)" fill="#c2c2c2"/><path d="M1447.133-39.313h26.4s16.892,1.062,16.93,17.573a16.341,16.341,0,0,1-3.479,9.635c-1.857,2.673-8.823,9.2-15.97,16.56-11.305,11.64-24.022,24.886-24.022,24.886Z" transform="translate(633.85 -99.233)" fill="#e2e2e2"/></g></svg>